# xmcd
#
# Track frame offsets: 
#        150
#        15183
#        24567
#        35963
#        47076
#        56231
#        67014
#        78115
#        87055
#        98855
#        109034
#        118002
#        127964
#        137363
#        150175
#        160925
#
# Disc length: 2293 seconds
#
# Revision: 2
# Processed by: cddbd v1.5.2PL0 Copyright (c) Steve Scherf et al.
# Submitted via: ExactAudioCopyFreeDBPlugin 1.0
#
DISCID=c008f310
DTITLE=Johnny Cash - The Best Of - CD 3
DYEAR=1900
DGENRE=Country
TTITLE0=A Boy Named Sue (live)
TTITLE1=I Got Stripes
TTITLE2=Green Green Grass Of Home (live)
TTITLE3=Oh Lonesome Me
TTITLE4=You win Again
TTITLE5=Wide Open Road
TTITLE6=Mean Eyed Cat
TTITLE7=Two Timin' Woman
TTITLE8=Doin' My Time
TTITLE9=I Was There When It Happened
TTITLE10=Remember Me
TTITLE11=Story Of A Broken Heart
TTITLE12=Down The Streets To 301
TTITLE13=San Quentin (live)
TTITLE14=Belshazzar
TTITLE15=Don't Make Me Go
EXTD=
EXTT0=
EXTT1=
EXTT2=
EXTT3=
EXTT4=
EXTT5=
EXTT6=
EXTT7=
EXTT8=
EXTT9=
EXTT10=
EXTT11=
EXTT12=
EXTT13=
EXTT14=
EXTT15=
PLAYORDER=
